<mxfile host="app.diagrams.net" modified="2021-10-11T21:08:56.845Z" agent="5.0 (Windows NT 10.0; Win64; x64) AppleWebKit/537.36 (KHTML, like Gecko) Chrome/94.0.4606.71 Safari/537.36" etag="D39Ad1q7MVqCCDImIp-O" version="15.5.1" type="github">
  <diagram id="R2lEEEUBdFMjLlhIrx00" name="Page-1">
    <mxGraphModel dx="2297" dy="1808" grid="1" gridSize="10" guides="1" tooltips="1" connect="1" arrows="1" fold="1" page="1" pageScale="1" pageWidth="850" pageHeight="1100" math="0" shadow="0" extFonts="Permanent Marker^https://fonts.googleapis.com/css?family=Permanent+Marker">
      <root>
        <mxCell id="0" />
        <mxCell id="1" parent="0" />
        <mxCell id="Z-R1q2jqI-cEmttNQNta-35" style="edgeStyle=orthogonalEdgeStyle;rounded=0;orthogonalLoop=1;jettySize=auto;html=1;" edge="1" parent="1" source="Z-R1q2jqI-cEmttNQNta-2" target="Z-R1q2jqI-cEmttNQNta-13">
          <mxGeometry relative="1" as="geometry" />
        </mxCell>
        <mxCell id="Z-R1q2jqI-cEmttNQNta-2" value="ANIMAL" style="rounded=0;whiteSpace=wrap;html=1;fillColor=#f8cecc;strokeColor=#b85450;" vertex="1" parent="1">
          <mxGeometry x="450" y="80" width="220" height="80" as="geometry" />
        </mxCell>
        <mxCell id="Z-R1q2jqI-cEmttNQNta-3" value="VETERINÁRIO" style="rounded=0;whiteSpace=wrap;html=1;fillColor=#f8cecc;strokeColor=#b85450;" vertex="1" parent="1">
          <mxGeometry x="170" y="240" width="170" height="80" as="geometry" />
        </mxCell>
        <mxCell id="Z-R1q2jqI-cEmttNQNta-37" style="edgeStyle=orthogonalEdgeStyle;rounded=0;orthogonalLoop=1;jettySize=auto;html=1;" edge="1" parent="1" source="Z-R1q2jqI-cEmttNQNta-4" target="Z-R1q2jqI-cEmttNQNta-12">
          <mxGeometry relative="1" as="geometry" />
        </mxCell>
        <mxCell id="Z-R1q2jqI-cEmttNQNta-4" value="CONSULTA" style="rounded=0;whiteSpace=wrap;html=1;fillColor=#f8cecc;strokeColor=#b85450;" vertex="1" parent="1">
          <mxGeometry x="620" y="260" width="220" height="70" as="geometry" />
        </mxCell>
        <mxCell id="Z-R1q2jqI-cEmttNQNta-34" style="edgeStyle=orthogonalEdgeStyle;rounded=0;orthogonalLoop=1;jettySize=auto;html=1;" edge="1" parent="1" source="Z-R1q2jqI-cEmttNQNta-11" target="Z-R1q2jqI-cEmttNQNta-2">
          <mxGeometry relative="1" as="geometry" />
        </mxCell>
        <mxCell id="Z-R1q2jqI-cEmttNQNta-11" value="POSSUI" style="shape=rhombus;perimeter=rhombusPerimeter;whiteSpace=wrap;html=1;align=center;" vertex="1" parent="1">
          <mxGeometry x="290" y="90" width="120" height="60" as="geometry" />
        </mxCell>
        <mxCell id="Z-R1q2jqI-cEmttNQNta-38" style="edgeStyle=orthogonalEdgeStyle;rounded=0;orthogonalLoop=1;jettySize=auto;html=1;entryX=1;entryY=0.5;entryDx=0;entryDy=0;" edge="1" parent="1" source="Z-R1q2jqI-cEmttNQNta-12" target="Z-R1q2jqI-cEmttNQNta-3">
          <mxGeometry relative="1" as="geometry" />
        </mxCell>
        <mxCell id="Z-R1q2jqI-cEmttNQNta-12" value="REALIZA" style="shape=rhombus;perimeter=rhombusPerimeter;whiteSpace=wrap;html=1;align=center;" vertex="1" parent="1">
          <mxGeometry x="420" y="250" width="120" height="60" as="geometry" />
        </mxCell>
        <mxCell id="Z-R1q2jqI-cEmttNQNta-36" style="edgeStyle=orthogonalEdgeStyle;rounded=0;orthogonalLoop=1;jettySize=auto;html=1;" edge="1" parent="1" source="Z-R1q2jqI-cEmttNQNta-13" target="Z-R1q2jqI-cEmttNQNta-4">
          <mxGeometry relative="1" as="geometry" />
        </mxCell>
        <mxCell id="Z-R1q2jqI-cEmttNQNta-13" value="FAZ" style="shape=rhombus;perimeter=rhombusPerimeter;whiteSpace=wrap;html=1;align=center;" vertex="1" parent="1">
          <mxGeometry x="720" y="90" width="120" height="60" as="geometry" />
        </mxCell>
        <mxCell id="Z-R1q2jqI-cEmttNQNta-33" style="edgeStyle=orthogonalEdgeStyle;rounded=0;orthogonalLoop=1;jettySize=auto;html=1;" edge="1" parent="1" source="Z-R1q2jqI-cEmttNQNta-14" target="Z-R1q2jqI-cEmttNQNta-11">
          <mxGeometry relative="1" as="geometry" />
        </mxCell>
        <mxCell id="Z-R1q2jqI-cEmttNQNta-14" value="CLIENTE" style="whiteSpace=wrap;html=1;align=center;fillColor=#f8cecc;strokeColor=#b85450;" vertex="1" parent="1">
          <mxGeometry x="60" y="80" width="170" height="80" as="geometry" />
        </mxCell>
        <mxCell id="Z-R1q2jqI-cEmttNQNta-64" style="edgeStyle=orthogonalEdgeStyle;rounded=0;orthogonalLoop=1;jettySize=auto;html=1;entryX=0;entryY=0;entryDx=0;entryDy=0;" edge="1" parent="1" source="Z-R1q2jqI-cEmttNQNta-15" target="Z-R1q2jqI-cEmttNQNta-14">
          <mxGeometry relative="1" as="geometry" />
        </mxCell>
        <mxCell id="Z-R1q2jqI-cEmttNQNta-15" value="ID_CLIENTE" style="ellipse;whiteSpace=wrap;html=1;align=center;fontStyle=1;fillColor=#d80073;strokeColor=#A50040;fontColor=#ffffff;" vertex="1" parent="1">
          <mxGeometry x="-25" width="90" height="40" as="geometry" />
        </mxCell>
        <mxCell id="Z-R1q2jqI-cEmttNQNta-63" style="edgeStyle=orthogonalEdgeStyle;rounded=0;orthogonalLoop=1;jettySize=auto;html=1;entryX=0.183;entryY=-0.05;entryDx=0;entryDy=0;entryPerimeter=0;" edge="1" parent="1" source="Z-R1q2jqI-cEmttNQNta-16" target="Z-R1q2jqI-cEmttNQNta-14">
          <mxGeometry relative="1" as="geometry">
            <mxPoint x="92" y="70" as="targetPoint" />
            <Array as="points">
              <mxPoint x="91" y="-40" />
            </Array>
          </mxGeometry>
        </mxCell>
        <mxCell id="Z-R1q2jqI-cEmttNQNta-16" value="CPF" style="ellipse;whiteSpace=wrap;html=1;align=center;" vertex="1" parent="1">
          <mxGeometry x="-30" y="-60" width="100" height="40" as="geometry" />
        </mxCell>
        <mxCell id="Z-R1q2jqI-cEmttNQNta-62" style="edgeStyle=orthogonalEdgeStyle;rounded=0;orthogonalLoop=1;jettySize=auto;html=1;" edge="1" parent="1" source="Z-R1q2jqI-cEmttNQNta-17">
          <mxGeometry relative="1" as="geometry">
            <mxPoint x="110" y="79" as="targetPoint" />
            <Array as="points">
              <mxPoint x="110" y="-90" />
              <mxPoint x="110" y="79" />
            </Array>
          </mxGeometry>
        </mxCell>
        <mxCell id="Z-R1q2jqI-cEmttNQNta-17" value="ENDERÇO" style="ellipse;whiteSpace=wrap;html=1;align=center;" vertex="1" parent="1">
          <mxGeometry x="-30" y="-110" width="100" height="40" as="geometry" />
        </mxCell>
        <mxCell id="Z-R1q2jqI-cEmttNQNta-61" style="edgeStyle=orthogonalEdgeStyle;rounded=0;orthogonalLoop=1;jettySize=auto;html=1;" edge="1" parent="1" source="Z-R1q2jqI-cEmttNQNta-18">
          <mxGeometry relative="1" as="geometry">
            <mxPoint x="130" y="81" as="targetPoint" />
            <Array as="points">
              <mxPoint x="130" y="-140" />
              <mxPoint x="130" y="81" />
            </Array>
          </mxGeometry>
        </mxCell>
        <mxCell id="Z-R1q2jqI-cEmttNQNta-18" value="TEFEFONE" style="ellipse;whiteSpace=wrap;html=1;align=center;" vertex="1" parent="1">
          <mxGeometry x="-30" y="-160" width="100" height="40" as="geometry" />
        </mxCell>
        <mxCell id="Z-R1q2jqI-cEmttNQNta-65" style="edgeStyle=orthogonalEdgeStyle;rounded=0;orthogonalLoop=1;jettySize=auto;html=1;entryX=0.11;entryY=1.002;entryDx=0;entryDy=0;entryPerimeter=0;" edge="1" parent="1" source="Z-R1q2jqI-cEmttNQNta-20" target="Z-R1q2jqI-cEmttNQNta-3">
          <mxGeometry relative="1" as="geometry" />
        </mxCell>
        <mxCell id="Z-R1q2jqI-cEmttNQNta-20" value="ID_VETERINÀRIO" style="ellipse;whiteSpace=wrap;html=1;align=center;fillColor=#d80073;strokeColor=#A50040;fontColor=#ffffff;fontStyle=1" vertex="1" parent="1">
          <mxGeometry x="-20" y="320" width="110" height="50" as="geometry" />
        </mxCell>
        <mxCell id="Z-R1q2jqI-cEmttNQNta-67" style="edgeStyle=orthogonalEdgeStyle;rounded=0;orthogonalLoop=1;jettySize=auto;html=1;" edge="1" parent="1" source="Z-R1q2jqI-cEmttNQNta-21">
          <mxGeometry relative="1" as="geometry">
            <mxPoint x="210" y="320" as="targetPoint" />
          </mxGeometry>
        </mxCell>
        <mxCell id="Z-R1q2jqI-cEmttNQNta-21" value="NOME_VETERINÁRIO" style="ellipse;whiteSpace=wrap;html=1;align=center;" vertex="1" parent="1">
          <mxGeometry x="30" y="380" width="100" height="40" as="geometry" />
        </mxCell>
        <mxCell id="Z-R1q2jqI-cEmttNQNta-68" style="edgeStyle=orthogonalEdgeStyle;rounded=0;orthogonalLoop=1;jettySize=auto;html=1;" edge="1" parent="1" source="Z-R1q2jqI-cEmttNQNta-22">
          <mxGeometry relative="1" as="geometry">
            <mxPoint x="219" y="321" as="targetPoint" />
            <Array as="points">
              <mxPoint x="219" y="460" />
            </Array>
          </mxGeometry>
        </mxCell>
        <mxCell id="Z-R1q2jqI-cEmttNQNta-22" value="CRM" style="ellipse;whiteSpace=wrap;html=1;align=center;" vertex="1" parent="1">
          <mxGeometry x="50" y="440" width="100" height="40" as="geometry" />
        </mxCell>
        <mxCell id="Z-R1q2jqI-cEmttNQNta-74" style="edgeStyle=orthogonalEdgeStyle;rounded=0;orthogonalLoop=1;jettySize=auto;html=1;entryX=0.394;entryY=1;entryDx=0;entryDy=0;entryPerimeter=0;" edge="1" parent="1" source="Z-R1q2jqI-cEmttNQNta-23" target="Z-R1q2jqI-cEmttNQNta-3">
          <mxGeometry relative="1" as="geometry">
            <Array as="points">
              <mxPoint x="237" y="520" />
            </Array>
          </mxGeometry>
        </mxCell>
        <mxCell id="Z-R1q2jqI-cEmttNQNta-23" value="NOME_ANIMAL&amp;nbsp;" style="ellipse;whiteSpace=wrap;html=1;align=center;" vertex="1" parent="1">
          <mxGeometry x="90" y="500" width="100" height="40" as="geometry" />
        </mxCell>
        <mxCell id="Z-R1q2jqI-cEmttNQNta-72" style="edgeStyle=orthogonalEdgeStyle;rounded=0;orthogonalLoop=1;jettySize=auto;html=1;" edge="1" parent="1" source="Z-R1q2jqI-cEmttNQNta-24" target="Z-R1q2jqI-cEmttNQNta-3">
          <mxGeometry relative="1" as="geometry">
            <Array as="points">
              <mxPoint x="255" y="570" />
            </Array>
          </mxGeometry>
        </mxCell>
        <mxCell id="Z-R1q2jqI-cEmttNQNta-24" value="RAÇA" style="ellipse;whiteSpace=wrap;html=1;align=center;" vertex="1" parent="1">
          <mxGeometry x="140" y="550" width="100" height="40" as="geometry" />
        </mxCell>
        <mxCell id="Z-R1q2jqI-cEmttNQNta-73" style="edgeStyle=orthogonalEdgeStyle;rounded=0;orthogonalLoop=1;jettySize=auto;html=1;entryX=0.713;entryY=1.044;entryDx=0;entryDy=0;entryPerimeter=0;" edge="1" parent="1" source="Z-R1q2jqI-cEmttNQNta-25" target="Z-R1q2jqI-cEmttNQNta-3">
          <mxGeometry relative="1" as="geometry">
            <Array as="points">
              <mxPoint x="291" y="520" />
              <mxPoint x="291" y="520" />
            </Array>
          </mxGeometry>
        </mxCell>
        <mxCell id="Z-R1q2jqI-cEmttNQNta-25" value="ESPECIE&amp;nbsp;" style="ellipse;whiteSpace=wrap;html=1;align=center;" vertex="1" parent="1">
          <mxGeometry x="180" y="590" width="100" height="40" as="geometry" />
        </mxCell>
        <mxCell id="Z-R1q2jqI-cEmttNQNta-77" style="edgeStyle=orthogonalEdgeStyle;rounded=0;orthogonalLoop=1;jettySize=auto;html=1;entryX=0.864;entryY=0;entryDx=0;entryDy=0;entryPerimeter=0;" edge="1" parent="1" source="Z-R1q2jqI-cEmttNQNta-26" target="Z-R1q2jqI-cEmttNQNta-2">
          <mxGeometry relative="1" as="geometry" />
        </mxCell>
        <mxCell id="Z-R1q2jqI-cEmttNQNta-26" value="&lt;b&gt;ID_ANIMAL&lt;/b&gt;" style="ellipse;whiteSpace=wrap;html=1;align=center;fillColor=#d80073;strokeColor=#A50040;fontColor=#ffffff;" vertex="1" parent="1">
          <mxGeometry x="590" y="20" width="100" height="40" as="geometry" />
        </mxCell>
        <mxCell id="Z-R1q2jqI-cEmttNQNta-78" style="edgeStyle=orthogonalEdgeStyle;rounded=0;orthogonalLoop=1;jettySize=auto;html=1;entryX=0.636;entryY=0;entryDx=0;entryDy=0;entryPerimeter=0;" edge="1" parent="1" source="Z-R1q2jqI-cEmttNQNta-27" target="Z-R1q2jqI-cEmttNQNta-2">
          <mxGeometry relative="1" as="geometry" />
        </mxCell>
        <mxCell id="Z-R1q2jqI-cEmttNQNta-27" value="NOME_PET" style="ellipse;whiteSpace=wrap;html=1;align=center;" vertex="1" parent="1">
          <mxGeometry x="540" y="-30" width="100" height="40" as="geometry" />
        </mxCell>
        <mxCell id="Z-R1q2jqI-cEmttNQNta-79" style="edgeStyle=orthogonalEdgeStyle;rounded=0;orthogonalLoop=1;jettySize=auto;html=1;entryX=0.365;entryY=-0.037;entryDx=0;entryDy=0;entryPerimeter=0;" edge="1" parent="1" source="Z-R1q2jqI-cEmttNQNta-28" target="Z-R1q2jqI-cEmttNQNta-2">
          <mxGeometry relative="1" as="geometry" />
        </mxCell>
        <mxCell id="Z-R1q2jqI-cEmttNQNta-28" value="RAÇA" style="ellipse;whiteSpace=wrap;html=1;align=center;" vertex="1" parent="1">
          <mxGeometry x="480" y="-80" width="100" height="40" as="geometry" />
        </mxCell>
        <mxCell id="Z-R1q2jqI-cEmttNQNta-80" style="edgeStyle=orthogonalEdgeStyle;rounded=0;orthogonalLoop=1;jettySize=auto;html=1;" edge="1" parent="1" source="Z-R1q2jqI-cEmttNQNta-29">
          <mxGeometry relative="1" as="geometry">
            <mxPoint x="471" y="80" as="targetPoint" />
          </mxGeometry>
        </mxCell>
        <mxCell id="Z-R1q2jqI-cEmttNQNta-29" value="PORTE" style="ellipse;whiteSpace=wrap;html=1;align=center;" vertex="1" parent="1">
          <mxGeometry x="420" y="-130" width="100" height="40" as="geometry" />
        </mxCell>
        <mxCell id="Z-R1q2jqI-cEmttNQNta-60" style="edgeStyle=orthogonalEdgeStyle;rounded=0;orthogonalLoop=1;jettySize=auto;html=1;entryX=0.5;entryY=0;entryDx=0;entryDy=0;" edge="1" parent="1" source="Z-R1q2jqI-cEmttNQNta-30" target="Z-R1q2jqI-cEmttNQNta-14">
          <mxGeometry relative="1" as="geometry">
            <Array as="points">
              <mxPoint x="145" y="-190" />
            </Array>
          </mxGeometry>
        </mxCell>
        <mxCell id="Z-R1q2jqI-cEmttNQNta-30" value="DATA_DE_NASCIMENTO" style="ellipse;whiteSpace=wrap;html=1;align=center;labelBackgroundColor=#D4E1F5;" vertex="1" parent="1">
          <mxGeometry x="-40" y="-210" width="110" height="40" as="geometry" />
        </mxCell>
        <mxCell id="Z-R1q2jqI-cEmttNQNta-58" style="edgeStyle=orthogonalEdgeStyle;rounded=0;orthogonalLoop=1;jettySize=auto;html=1;entryX=0.566;entryY=0.002;entryDx=0;entryDy=0;entryPerimeter=0;" edge="1" parent="1" source="Z-R1q2jqI-cEmttNQNta-31" target="Z-R1q2jqI-cEmttNQNta-14">
          <mxGeometry relative="1" as="geometry">
            <mxPoint x="160" y="20" as="targetPoint" />
            <Array as="points">
              <mxPoint x="156" y="-240" />
            </Array>
          </mxGeometry>
        </mxCell>
        <mxCell id="Z-R1q2jqI-cEmttNQNta-31" value="NOME_CLIENTE" style="ellipse;whiteSpace=wrap;html=1;align=center;labelBackgroundColor=#D4E1F5;" vertex="1" parent="1">
          <mxGeometry x="-20" y="-260" width="100" height="40" as="geometry" />
        </mxCell>
        <mxCell id="Z-R1q2jqI-cEmttNQNta-81" style="edgeStyle=orthogonalEdgeStyle;rounded=0;orthogonalLoop=1;jettySize=auto;html=1;entryX=0;entryY=0.25;entryDx=0;entryDy=0;" edge="1" parent="1" source="Z-R1q2jqI-cEmttNQNta-32" target="Z-R1q2jqI-cEmttNQNta-2">
          <mxGeometry relative="1" as="geometry" />
        </mxCell>
        <mxCell id="Z-R1q2jqI-cEmttNQNta-32" value="ESPECÌE" style="ellipse;whiteSpace=wrap;html=1;align=center;labelBackgroundColor=#D4E1F5;" vertex="1" parent="1">
          <mxGeometry x="375" y="-180" width="100" height="40" as="geometry" />
        </mxCell>
        <mxCell id="Z-R1q2jqI-cEmttNQNta-84" style="edgeStyle=orthogonalEdgeStyle;rounded=0;orthogonalLoop=1;jettySize=auto;html=1;entryX=0.955;entryY=1;entryDx=0;entryDy=0;entryPerimeter=0;" edge="1" parent="1" source="Z-R1q2jqI-cEmttNQNta-39" target="Z-R1q2jqI-cEmttNQNta-4">
          <mxGeometry relative="1" as="geometry" />
        </mxCell>
        <mxCell id="Z-R1q2jqI-cEmttNQNta-39" value="ID_CONSULTA" style="ellipse;whiteSpace=wrap;html=1;align=center;labelBackgroundColor=none;fillColor=#d80073;strokeColor=#A50040;fontColor=#ffffff;fontStyle=1" vertex="1" parent="1">
          <mxGeometry x="780" y="360" width="100" height="40" as="geometry" />
        </mxCell>
        <mxCell id="Z-R1q2jqI-cEmttNQNta-85" style="edgeStyle=orthogonalEdgeStyle;rounded=0;orthogonalLoop=1;jettySize=auto;html=1;entryX=0.682;entryY=1;entryDx=0;entryDy=0;entryPerimeter=0;" edge="1" parent="1" source="Z-R1q2jqI-cEmttNQNta-40" target="Z-R1q2jqI-cEmttNQNta-4">
          <mxGeometry relative="1" as="geometry">
            <Array as="points">
              <mxPoint x="770" y="400" />
              <mxPoint x="770" y="400" />
            </Array>
          </mxGeometry>
        </mxCell>
        <mxCell id="Z-R1q2jqI-cEmttNQNta-40" value="N_CONSULTORIO" style="ellipse;whiteSpace=wrap;html=1;align=center;labelBackgroundColor=#D4E1F5;" vertex="1" parent="1">
          <mxGeometry x="730" y="430" width="100" height="40" as="geometry" />
        </mxCell>
        <mxCell id="Z-R1q2jqI-cEmttNQNta-86" style="edgeStyle=orthogonalEdgeStyle;rounded=0;orthogonalLoop=1;jettySize=auto;html=1;entryX=0.455;entryY=1;entryDx=0;entryDy=0;entryPerimeter=0;" edge="1" parent="1" source="Z-R1q2jqI-cEmttNQNta-41" target="Z-R1q2jqI-cEmttNQNta-4">
          <mxGeometry relative="1" as="geometry" />
        </mxCell>
        <mxCell id="Z-R1q2jqI-cEmttNQNta-41" value="TIPO_DE_CONSULTA" style="ellipse;whiteSpace=wrap;html=1;align=center;labelBackgroundColor=#D4E1F5;" vertex="1" parent="1">
          <mxGeometry x="670" y="490" width="100" height="40" as="geometry" />
        </mxCell>
        <mxCell id="Z-R1q2jqI-cEmttNQNta-87" style="edgeStyle=orthogonalEdgeStyle;rounded=0;orthogonalLoop=1;jettySize=auto;html=1;entryX=0.182;entryY=1;entryDx=0;entryDy=0;entryPerimeter=0;" edge="1" parent="1" source="Z-R1q2jqI-cEmttNQNta-42" target="Z-R1q2jqI-cEmttNQNta-4">
          <mxGeometry relative="1" as="geometry" />
        </mxCell>
        <mxCell id="Z-R1q2jqI-cEmttNQNta-42" value="NOME_ANIMAL" style="ellipse;whiteSpace=wrap;html=1;align=center;labelBackgroundColor=#D4E1F5;" vertex="1" parent="1">
          <mxGeometry x="610" y="550" width="100" height="40" as="geometry" />
        </mxCell>
        <mxCell id="Z-R1q2jqI-cEmttNQNta-71" style="edgeStyle=orthogonalEdgeStyle;rounded=0;orthogonalLoop=1;jettySize=auto;html=1;exitX=0.5;exitY=1;exitDx=0;exitDy=0;" edge="1" parent="1" source="Z-R1q2jqI-cEmttNQNta-23" target="Z-R1q2jqI-cEmttNQNta-23">
          <mxGeometry relative="1" as="geometry" />
        </mxCell>
        <mxCell id="Z-R1q2jqI-cEmttNQNta-88" value="NOME_VETERINÁRIO" style="ellipse;whiteSpace=wrap;html=1;align=center;labelBackgroundColor=none;" vertex="1" parent="1">
          <mxGeometry x="570" y="610" width="100" height="40" as="geometry" />
        </mxCell>
        <mxCell id="Z-R1q2jqI-cEmttNQNta-92" style="edgeStyle=orthogonalEdgeStyle;rounded=0;orthogonalLoop=1;jettySize=auto;html=1;" edge="1" parent="1" source="Z-R1q2jqI-cEmttNQNta-89" target="Z-R1q2jqI-cEmttNQNta-3">
          <mxGeometry relative="1" as="geometry">
            <mxPoint x="350" y="320" as="targetPoint" />
            <Array as="points">
              <mxPoint x="360" y="320" />
            </Array>
          </mxGeometry>
        </mxCell>
        <mxCell id="Z-R1q2jqI-cEmttNQNta-89" value="DIAGNOSTICO" style="ellipse;whiteSpace=wrap;html=1;align=center;labelBackgroundColor=none;" vertex="1" parent="1">
          <mxGeometry x="250" y="690" width="100" height="40" as="geometry" />
        </mxCell>
        <mxCell id="Z-R1q2jqI-cEmttNQNta-91" style="edgeStyle=orthogonalEdgeStyle;rounded=0;orthogonalLoop=1;jettySize=auto;html=1;entryX=0.912;entryY=1;entryDx=0;entryDy=0;entryPerimeter=0;" edge="1" parent="1" source="Z-R1q2jqI-cEmttNQNta-90" target="Z-R1q2jqI-cEmttNQNta-3">
          <mxGeometry relative="1" as="geometry">
            <Array as="points">
              <mxPoint x="325" y="560" />
              <mxPoint x="325" y="560" />
            </Array>
          </mxGeometry>
        </mxCell>
        <mxCell id="Z-R1q2jqI-cEmttNQNta-90" value="PORTE" style="ellipse;whiteSpace=wrap;html=1;align=center;labelBackgroundColor=none;" vertex="1" parent="1">
          <mxGeometry x="210" y="640" width="100" height="40" as="geometry" />
        </mxCell>
        <mxCell id="Z-R1q2jqI-cEmttNQNta-94" style="edgeStyle=orthogonalEdgeStyle;rounded=0;orthogonalLoop=1;jettySize=auto;html=1;entryX=1;entryY=0.75;entryDx=0;entryDy=0;" edge="1" parent="1" source="Z-R1q2jqI-cEmttNQNta-93" target="Z-R1q2jqI-cEmttNQNta-3">
          <mxGeometry relative="1" as="geometry" />
        </mxCell>
        <mxCell id="Z-R1q2jqI-cEmttNQNta-93" value="DATA_DA_CONSULTA" style="ellipse;whiteSpace=wrap;html=1;align=center;labelBackgroundColor=none;" vertex="1" parent="1">
          <mxGeometry x="320" y="730" width="100" height="40" as="geometry" />
        </mxCell>
      </root>
    </mxGraphModel>
  </diagram>
</mxfile>
